<svg xmlns="http://www.w3.org/2000/svg" width="960" height="360" viewBox="0 0 960 360">
  <style>
    .box{fill:#fff;stroke:#1f2937;stroke-width:2;rx:8;ry:8}
    .label{font:14px system-ui; fill:#111827}
    .small{font:12px system-ui; fill:#374151}
    .arrow{stroke:#6b7280;stroke-width:2;marker-end:url(#arrow)}
    .title{font:16px system-ui; fill:#111827; font-weight:700}
  </style>
  <defs>
    <marker id="arrow" markerWidth="10" markerHeight="10" refX="6" refY="3" orient="auto" markerUnits="strokeWidth">
      <path d="M0,0 L0,6 L6,3 z" fill="#6b7280" />
    </marker>
  </defs>
  <text x="20" y="28" class="title">Ciclo de query (react-query-lite)</text>

  <rect class="box" x="40" y="70" width="170" height="60"/>
  <text class="label" x="60" y="105">Componente</text>

  <rect class="box" x="240" y="70" width="200" height="60"/>
  <text class="label" x="260" y="95">useQuery({ queryKey,</text>
  <text class="label" x="260" y="115">queryFn })</text>

  <rect class="box" x="480" y="70" width="160" height="60"/>
  <text class="label" x="500" y="105">Cache</text>

  <rect class="box" x="680" y="70" width="220" height="60"/>
  <text class="label" x="700" y="100">HTTP (apiClient)</text>

  <line class="arrow" x1="210" y1="100" x2="240" y2="100"/>
  <line class="arrow" x1="440" y1="100" x2="480" y2="100"/>
  <line class="arrow" x1="640" y1="100" x2="680" y2="100"/>

  <text class="small" x="260" y="150">retry: 0 en 4xx y 401/403</text>
  <text class="small" x="260" y="170">staleTime/cacheTime configurables</text>
  <text class="small" x="480" y="150">onError → observabilidad</text>

  <line class="arrow" x1="680" y1="130" x2="480" y2="130"/>
  <line class="arrow" x1="480" y1="130" x2="240" y2="130"/>
</svg>